<?xml version="1.0" standalone="no"?>
<!DOCTYPE svg PUBLIC "-//W3C//DTD SVG 20010904//EN"
 "http://www.w3.org/TR/2001/REC-SVG-20010904/DTD/svg10.dtd">
<svg version="1.0" xmlns="http://www.w3.org/2000/svg"
 width="343.000000pt" height="248.000000pt" viewBox="0 0 343.000000 248.000000"
 preserveAspectRatio="xMidYMid meet">

<g transform="translate(0.000000,248.000000) scale(0.100000,-0.100000)"
fill="#000000" stroke="none">
<path d="M1030 2243 c-37 -13 -40 -32 -40 -258 0 -264 -2 -258 101 -253 49 2
64 7 64 18 0 11 -14 16 -57 18 l-58 3 0 214 0 215 300 0 300 0 0 -215 0 -215
-58 0 c-69 0 -92 -18 -92 -70 l0 -34 -53 52 -53 52 -83 0 c-73 0 -82 -2 -79
-17 3 -15 17 -19 75 -23 l72 -5 51 -57 c29 -32 59 -58 69 -58 26 0 41 21 41
56 0 58 7 64 70 64 91 0 90 -3 90 258 0 209 -1 223 -20 242 -19 19 -33 20
-322 19 -167 0 -310 -3 -318 -6z"/>
<path d="M1890 2243 c-37 -13 -40 -32 -40 -253 0 -259 -1 -258 93 -262 l62 -3
3 -45 c7 -89 36 -92 117 -10 l59 60 167 0 c139 0 170 3 183 16 14 13 16 50 16
244 0 225 0 229 -22 244 -19 14 -66 16 -323 15 -165 0 -307 -3 -315 -6z m615
-258 l0 -210 -176 -3 -177 -2 -46 -50 c-41 -43 -46 -46 -46 -26 0 13 -9 35
-21 50 -18 23 -28 26 -80 26 l-59 0 0 215 0 215 303 -2 302 -3 0 -210z"/>
<path d="M2017 2113 c-4 -3 -7 -12 -7 -20 0 -10 38 -13 190 -13 183 0 190 1
190 20 0 19 -7 20 -183 20 -101 0 -187 -3 -190 -7z"/>
<path d="M2013 1995 c-3 -9 -1 -21 4 -26 5 -5 84 -8 189 -7 171 3 179 4 179
23 0 19 -8 20 -183 23 -159 2 -183 0 -189 -13z"/>
<path d="M2021 1891 c-8 -5 -11 -16 -8 -25 5 -13 26 -16 132 -16 106 0 127 3
132 16 10 27 -17 34 -132 34 -60 0 -116 -4 -124 -9z"/>
<path d="M1142 2088 c2 -57 6 -73 18 -73 12 0 15 14 15 70 0 59 -3 70 -18 73
-16 3 -18 -4 -15 -70z"/>
<path d="M1252 2144 c-17 -12 -22 -25 -22 -59 0 -47 24 -75 65 -75 41 0 65 28
65 74 0 68 -54 98 -108 60z m68 -59 c0 -20 -5 -25 -25 -25 -20 0 -25 5 -25 25
0 20 5 25 25 25 20 0 25 -5 25 -25z"/>
<path d="M1417 2153 c-4 -3 -7 -35 -7 -70 0 -49 4 -65 16 -70 9 -3 20 0 25 8
10 16 12 99 3 123 -6 16 -26 21 -37 9z"/>
<path d="M1507 2153 c-4 -3 -7 -35 -7 -70 0 -49 4 -65 16 -70 9 -3 20 0 25 8
10 16 12 99 3 123 -6 16 -26 21 -37 9z"/>
<path d="M1142 1893 c2 -53 6 -68 18 -68 12 0 16 15 18 68 3 62 1 67 -18 67
-19 0 -21 -5 -18 -67z"/>
<path d="M1232 1893 c2 -53 6 -68 18 -68 12 0 16 15 18 68 3 62 1 67 -18 67
-19 0 -21 -5 -18 -67z"/>
<path d="M1336 1945 c-20 -21 -21 -89 -1 -109 60 -60 151 12 114 90 -12 24
-21 30 -55 32 -28 2 -47 -2 -58 -13z m69 -55 c0 -29 -32 -41 -41 -16 -9 24 4
48 23 44 12 -2 18 -12 18 -28z"/>
<path d="M1507 1954 c-4 -4 -7 -34 -7 -66 0 -45 4 -60 16 -65 24 -9 34 16 32
77 -2 40 -7 56 -18 58 -9 1 -19 0 -23 -4z"/>
<path d="M1572 1499 c-65 -25 -140 -97 -171 -164 -13 -28 -26 -78 -29 -112 -4
-52 -8 -63 -23 -63 -16 0 -19 10 -21 78 -3 69 -5 77 -23 77 -18 0 -20 -8 -23
-82 -2 -63 -6 -83 -17 -83 -26 0 -55 -50 -55 -97 0 -81 30 -112 108 -113 51 0
52 0 52 -30 0 -36 24 -96 48 -123 9 -11 34 -28 54 -38 34 -17 62 -19 301 -19
277 0 309 5 294 44 -5 13 -12 15 -29 9 -13 -4 -136 -8 -275 -8 -238 0 -253 1
-279 21 -67 50 -69 57 -69 267 l0 192 30 60 30 60 5 -243 c5 -241 5 -244 29
-263 21 -18 42 -19 262 -19 237 0 238 0 266 24 l28 24 0 236 c0 226 1 235 17
213 37 -46 48 -114 48 -286 0 -103 -4 -177 -12 -198 -9 -26 -9 -36 0 -45 20
-20 44 14 50 71 l5 51 54 0 c75 0 103 28 103 103 0 57 -26 107 -55 107 -11 0
-15 20 -17 83 -3 74 -5 82 -23 82 -18 0 -20 -8 -23 -77 -2 -68 -5 -78 -21 -78
-15 0 -19 11 -23 68 -8 110 -68 201 -170 258 -52 28 -57 29 -213 31 -142 3
-166 0 -213 -18z m344 -30 c32 -8 53 -22 72 -47 l27 -35 3 -232 c3 -204 1
-235 -13 -249 -14 -14 -47 -16 -232 -16 -187 0 -219 2 -235 17 -16 15 -18 35
-18 232 0 272 10 301 109 332 40 12 237 10 287 -2z m-546 -420 l0 -60 -52 3
-53 3 -3 49 c-4 57 5 66 66 66 l42 0 0 -61z m914 29 c6 -18 6 -38 0 -55 -8
-25 -15 -28 -62 -31 l-52 -3 0 61 0 61 52 -3 c47 -3 54 -6 62 -30z"/>
<path d="M1609 1161 c-20 -16 -24 -29 -24 -71 0 -42 4 -55 24 -71 13 -10 33
-19 46 -19 13 0 33 9 46 19 20 16 24 29 24 71 0 42 -4 55 -24 71 -13 10 -33
19 -46 19 -13 0 -33 -9 -46 -19z m69 -74 c3 -35 1 -38 -20 -35 -24 3 -35 34
-24 64 12 30 41 11 44 -29z"/>
<path d="M1840 1160 c-30 -30 -29 -123 2 -144 54 -38 118 2 118 74 0 74 -73
117 -120 70z m70 -71 c0 -36 -2 -40 -22 -37 -40 5 -37 78 2 78 17 0 20 -6 20
-41z"/>
<path d="M620 395 l0 -215 40 0 40 0 0 215 0 215 -40 0 -40 0 0 -215z"/>
<path d="M1450 395 l0 -215 40 0 40 0 0 108 c0 117 6 132 52 132 39 0 48 -25
48 -139 l0 -101 40 0 40 0 0 110 c0 140 -12 174 -68 191 -33 10 -45 9 -72 -5
-18 -9 -35 -16 -37 -16 -1 0 -3 34 -3 75 l0 75 -40 0 -40 0 0 -215z"/>
<path d="M2870 536 l0 -74 -32 15 c-75 38 -158 -39 -158 -147 0 -53 30 -124
58 -139 30 -16 94 -13 120 5 20 14 22 14 22 0 0 -12 10 -16 35 -16 l35 0 0
215 0 215 -40 0 -40 0 0 -74z m-12 -128 c7 -7 12 -40 12 -80 0 -63 -2 -69 -25
-80 -38 -17 -72 2 -81 47 -7 40 1 91 17 112 14 16 61 17 77 1z"/>
<path d="M280 385 l0 -205 40 0 39 0 3 82 3 83 78 3 77 3 0 29 0 29 -77 3 -78
3 0 50 0 50 88 3 87 3 0 34 0 35 -130 0 -130 0 0 -205z"/>
<path d="M863 479 c-33 -10 -73 -51 -73 -75 0 -22 67 -17 90 6 24 24 43 25 65
4 30 -30 15 -49 -45 -54 -67 -7 -97 -25 -110 -66 -27 -79 69 -147 148 -105 14
7 23 8 27 1 3 -5 23 -10 43 -10 l37 0 -3 112 c-2 61 -8 122 -12 134 -19 48
-100 74 -167 53z m97 -187 c0 -35 -16 -52 -51 -52 -35 0 -54 22 -40 48 13 24
26 30 64 31 23 1 27 -3 27 -27z"/>
<path d="M1194 479 c-43 -12 -68 -44 -68 -85 0 -45 18 -61 95 -88 48 -16 64
-27 64 -40 0 -42 -77 -47 -90 -6 -5 15 -15 20 -40 20 -45 0 -49 -11 -22 -51
41 -62 166 -70 214 -14 48 56 20 114 -70 140 -73 21 -85 30 -71 52 16 27 60
29 76 4 15 -25 88 -31 88 -7 0 25 -41 65 -78 76 -43 12 -56 11 -98 -1z"/>
<path d="M1885 483 c-63 -16 -95 -67 -95 -148 0 -115 48 -161 162 -156 32 1
83 45 93 79 6 20 3 22 -32 22 -27 0 -42 -6 -51 -20 -15 -24 -54 -26 -76 -4
-22 22 -22 127 0 149 23 22 67 15 79 -12 8 -18 18 -23 48 -23 38 0 39 1 32 28
-16 64 -88 103 -160 85z"/>
<path d="M2193 479 c-33 -9 -73 -51 -73 -75 0 -23 73 -18 88 6 17 27 48 25 68
-5 22 -33 11 -45 -42 -45 -107 0 -159 -81 -96 -150 21 -25 35 -31 68 -32 23 0
50 5 62 11 14 7 23 8 27 1 3 -5 23 -10 43 -10 l37 0 -5 118 c-6 137 -18 165
-77 181 -44 13 -57 13 -100 0z m95 -188 c5 -30 -20 -51 -59 -51 -39 0 -50 37
-19 62 33 26 74 20 78 -11z"/>
<path d="M2557 470 c-22 -18 -27 -19 -27 -6 0 12 -10 16 -35 16 l-35 0 0 -150
0 -150 40 0 40 0 0 105 c0 114 6 125 65 125 24 0 26 3 23 38 -4 45 -30 54 -71
22z"/>
<path d="M3110 479 c-73 -29 -93 -98 -41 -142 16 -13 49 -29 74 -35 56 -15 74
-34 52 -56 -23 -23 -52 -20 -79 9 -28 31 -86 36 -86 8 1 -22 28 -57 57 -72 12
-6 46 -11 77 -11 44 0 60 5 85 26 61 51 29 135 -55 149 -22 4 -49 14 -62 21
-18 12 -20 18 -12 34 14 26 56 26 72 0 17 -27 88 -29 88 -2 0 36 -72 83 -123
81 -12 0 -33 -5 -47 -10z"/>
</g>
</svg>
